# xmcd
#
# Track frame offsets:
#	150
#	13198
#	27366
#	42937
#	59915
#	76366
#	92707
#	108769
#	122860
#	141178
#
# Disc length: 2177 seconds
#
# Revision: 0
# Processed by: cddbd v1.5.2PL0 Copyright (c) Steve Scherf et al.
# Submitted via: EasyCDDAExtractor 16.0.6.1
#
DISCID=87087f0a
DTITLE=Συλλογικός δίσκος - Λαϊκό τραγούδι 1954-1967, 1961-1
DYEAR=2008
DGENRE=Λαϊκή
TTITLE0=Λίντα Μαίρη-Χιώτης Μανώλης - Το τελευταίο ποτηράκι [Χρήστος Κολοκοτρών
TTITLE0=ης]
TTITLE1=Καζαντζίδης Στέλιος-Μαρινέλλα - Τώρα που είσαι νέα [Μανώλης Χιώτης]
TTITLE2=Λύδια Γιώτα-Χρηστάκης - Γιατί θες να φύγεις, πού θα πας [Στράτος Ατταλ
TTITLE2=ίδης-Κώστας Βίρβος]
TTITLE3=Περπινιάδης Βαγγέλης - Ανεβαίνω σκαλοπάτια [Απόστολος Καλδάρας]
TTITLE4=Καζαντζίδης Στέλιος - Στον ήλιο και στα σύννεφα [Μπάμπης Μπακάλης-Δημή
TTITLE4=τρης Γκούτης]
TTITLE5=Γαβαλάς Πάνος - Απόψε μαύρη συννεφιά [Πάνος Γαβαλάς]
TTITLE6=Λύδια Γιώτα - Πες μου γιατί [Στράτος Ατταλίδης-Κώστας Βίρβος]
TTITLE7=Περπινιάδης Βαγγέλης-Νόρμα Ρία - Γύρισε κοντά μου [Βαγγέλης Περπινιάδη
TTITLE7=ς]
TTITLE8=Καζαντζίδης Στέλιος - Φαράχ [Γιώργος Κόρος-Ευάγγελος Σκουρτανιώτης]
TTITLE9=Καζαντζίδης Στέλιος-Μαρινέλλα - Σαββατόβραδο [Μίκης Θεοδωράκης-Τάσος Λ
TTITLE9=ειβαδίτης]
EXTD=
EXTT0=
EXTT1=
EXTT2=
EXTT3=
EXTT4=
EXTT5=
EXTT6=
EXTT7=
EXTT8=
EXTT9=
PLAYORDER=
